<svg width="229" height="169" viewBox="0 0 229 169" fill="none" xmlns="http://www.w3.org/2000/svg">
<g clip-path="url(#clip0_972_274)">
<path d="M23.42 122.48L20.8 127.92C17.9 126.24 14.26 125.06 12.03 125.06C10.23 125.06 9.01001 125.73 9.01001 127.06C9.01001 131.8 23.5 129.1 23.5 139C23.5 144.48 18.64 147.38 12.54 147.38C7.96001 147.38 3.26001 145.66 0.0100098 142.99L2.71001 137.63C5.53001 140.1 9.76001 141.74 12.62 141.74C14.81 141.74 16.18 140.92 16.18 139.35C16.18 134.49 1.69001 137.39 1.69001 127.68C1.69001 122.63 6.04001 119.42 12.62 119.42C16.58 119.42 20.61 120.63 23.43 122.47L23.42 122.48Z" fill="#FF8000"/>
<path d="M55.13 133.41C55.13 141.4 48.79 147.47 40.29 147.47C31.79 147.47 25.49 141.44 25.49 133.41C25.49 125.38 31.83 119.51 40.29 119.51C48.75 119.51 55.13 125.46 55.13 133.41ZM32.62 133.44C32.62 138.06 36.18 141.62 40.37 141.62C44.56 141.62 47.97 138.06 47.97 133.44C47.97 128.82 44.6 125.33 40.37 125.33C36.14 125.33 32.62 128.82 32.62 133.44Z" fill="#FF8000"/>
<path d="M82.7801 147.15L82.7401 129.33L76.1601 144.41H71.6201L65.0401 129.33V147.15H58.8101V119.7H66.4501L73.8901 136.03L81.3301 119.7H88.9301V147.15H82.7801Z" fill="#FF8000"/>
<path d="M100.67 142.1L98.67 147.15H91.5L103.33 119.74H110.5L122.05 147.15H114.61L112.65 142.1H100.67ZM106.7 126.67L102.71 136.81H110.62L106.7 126.67Z" fill="#FF8000"/>
<path d="M137.05 139.44H131.57V147.15H124.6V119.74H136.86C144.1 119.74 148.26 123.19 148.26 129.29C148.26 133.48 146.5 136.5 143.29 138.1L149.05 147.15H141.14L137.07 139.44H137.05ZM136.85 133.95C139.87 133.95 141.63 132.42 141.63 129.52C141.63 126.62 139.87 125.21 136.85 125.21H131.56V133.94H136.85V133.95Z" fill="#FF8000"/>
<path d="M168.57 138.26C168.57 144.09 164.93 147.46 159.09 147.46C155.21 147.46 152.08 145.85 149.65 143.07L152.86 138.41C154.82 140.45 157.01 141.46 158.62 141.46C160.46 141.46 161.56 140.32 161.56 138.09V125.32H152.16V119.68H168.57V138.24V138.26Z" fill="#FF8000"/>
<path d="M198.25 135.64C198.25 142.88 193.43 147.47 185.76 147.47C178.09 147.47 173.11 142.89 173.11 135.64V119.74H180.08V135.64C180.08 139.36 182.47 141.63 185.8 141.63C189.13 141.63 191.32 139.36 191.32 135.64V119.74H198.25V135.64Z" fill="#FF8000"/>
<path d="M222.41 147.15L209.8 130.27V147.15H203.26V119.74H209.41L222.06 136.66V119.74H228.56V147.15H222.41Z" fill="#FF8000"/>
<path d="M90.61 91.6799C98.5629 91.6799 105.01 85.2328 105.01 77.2799C105.01 69.327 98.5629 62.8799 90.61 62.8799C82.6571 62.8799 76.21 69.327 76.21 77.2799C76.21 85.2328 82.6571 91.6799 90.61 91.6799Z" fill="#FF8000"/>
<path d="M137.15 39.8801C145.103 39.8801 151.55 33.433 151.55 25.4801C151.55 17.5272 145.103 11.0801 137.15 11.0801C129.197 11.0801 122.75 17.5272 122.75 25.4801C122.75 33.433 129.197 39.8801 137.15 39.8801Z" fill="#FF8000"/>
<path d="M139.6 50.6501H114.27V87.9801C114.36 88.3701 114.42 88.7601 114.41 89.1601C114.41 92.2501 114.32 95.3501 114.27 98.4401V101.3H139.6C153.53 101.3 164.93 89.9001 164.93 75.9701C164.93 62.0401 153.54 50.6401 139.61 50.6401L139.6 50.6501Z" fill="#FF8000"/>
<path d="M88.95 0C75.02 0 63.62 11.4 63.62 25.33C63.62 39.26 75.02 50.66 88.95 50.66H114.28V0H88.95Z" fill="#FF8000"/>
<path d="M43.06 157.86V159.23H40.22V168.54H38.47V159.23H35.61V157.86H43.06Z" fill="white"/>
<path d="M49.64 159.21V162.45H53.33V163.8H49.64V167.16H53.79V168.53H47.89V157.84H53.79V159.21H49.64Z" fill="white"/>
<path d="M59.1599 160.37C59.6499 159.54 60.3099 158.89 61.1399 158.43C61.9699 157.97 62.8899 157.73 63.8799 157.73C65.0199 157.73 66.0299 158.01 66.9099 158.57C67.7899 159.13 68.4399 159.92 68.8399 160.94H66.7399C66.4599 160.41 66.0799 160.01 65.5899 159.73C65.0999 159.46 64.5299 159.32 63.8799 159.32C63.1699 159.32 62.5399 159.48 61.9899 159.8C61.4399 160.12 60.9999 160.57 60.6899 161.15C60.3799 161.73 60.2199 162.41 60.2199 163.18C60.2199 163.95 60.3799 164.63 60.6899 165.22C60.9999 165.81 61.4299 166.26 61.9899 166.58C62.5399 166.9 63.1699 167.06 63.8799 167.06C64.5199 167.06 65.0899 166.92 65.5899 166.65C66.0799 166.38 66.4699 165.98 66.7399 165.44H68.8399C68.4399 166.46 67.7999 167.25 66.9099 167.81C66.0199 168.37 65.0099 168.64 63.8799 168.64C62.8799 168.64 61.9599 168.41 61.1299 167.94C60.2999 167.47 59.6399 166.83 59.1599 166C58.6799 165.17 58.4299 164.23 58.4299 163.19C58.4299 162.15 58.6699 161.21 59.1599 160.38V160.37Z" fill="white"/>
<path d="M82.48 157.86V168.53H80.73V163.82H75.71V168.53H73.96V157.86H75.71V162.47H80.73V157.86H82.48Z" fill="white"/>
<path d="M95.68 160.37C96.17 159.54 96.83 158.89 97.66 158.43C98.49 157.97 99.41 157.73 100.4 157.73C101.54 157.73 102.55 158.01 103.43 158.57C104.31 159.13 104.96 159.92 105.36 160.94H103.26C102.98 160.41 102.6 160.01 102.11 159.73C101.62 159.46 101.05 159.32 100.4 159.32C99.69 159.32 99.06 159.48 98.51 159.8C97.96 160.12 97.52 160.57 97.21 161.15C96.9 161.73 96.74 162.41 96.74 163.18C96.74 163.95 96.9 164.63 97.21 165.22C97.52 165.81 97.95 166.26 98.51 166.58C99.06 166.9 99.69 167.06 100.4 167.06C101.04 167.06 101.61 166.92 102.11 166.65C102.6 166.38 102.99 165.98 103.26 165.44H105.36C104.96 166.46 104.32 167.25 103.43 167.81C102.54 168.37 101.53 168.64 100.4 168.64C99.4 168.64 98.48 168.41 97.65 167.94C96.82 167.47 96.16 166.83 95.68 166C95.2 165.17 94.95 164.23 94.95 163.19C94.95 162.15 95.19 161.21 95.68 160.38V160.37Z" fill="white"/>
<path d="M112.6 167.95C111.77 167.48 111.1 166.83 110.62 166C110.14 165.17 109.89 164.23 109.89 163.18C109.89 162.13 110.13 161.2 110.62 160.37C111.11 159.54 111.77 158.89 112.6 158.43C113.43 157.97 114.35 157.73 115.34 157.73C116.33 157.73 117.26 157.96 118.1 158.43C118.93 158.9 119.59 159.54 120.07 160.37C120.55 161.2 120.79 162.14 120.79 163.18C120.79 164.22 120.55 165.16 120.07 166C119.59 166.83 118.93 167.48 118.1 167.95C117.27 168.41 116.35 168.65 115.34 168.65C114.33 168.65 113.43 168.42 112.6 167.95ZM117.23 166.58C117.78 166.26 118.22 165.8 118.53 165.21C118.84 164.62 119 163.94 119 163.17C119 162.4 118.84 161.73 118.53 161.14C118.22 160.55 117.78 160.11 117.23 159.79C116.68 159.47 116.05 159.31 115.34 159.31C114.63 159.31 114 159.47 113.45 159.79C112.9 160.11 112.46 160.56 112.15 161.14C111.84 161.72 111.68 162.4 111.68 163.17C111.68 163.94 111.84 164.62 112.15 165.21C112.46 165.8 112.89 166.25 113.45 166.58C114 166.9 114.63 167.06 115.34 167.06C116.05 167.06 116.68 166.9 117.23 166.58Z" fill="white"/>
<path d="M136.83 157.86V168.53H135.08V161.22L131.82 168.53H130.61L127.34 161.22V168.53H125.59V157.86H127.48L131.23 166.23L134.96 157.86H136.83Z" fill="white"/>
<path d="M149.29 162.58C149.03 163.06 148.62 163.45 148.06 163.76C147.5 164.06 146.77 164.21 145.89 164.21H143.95V168.54H142.2V157.87H145.89C146.71 157.87 147.4 158.01 147.97 158.29C148.54 158.57 148.96 158.95 149.24 159.43C149.52 159.91 149.66 160.45 149.66 161.04C149.66 161.58 149.53 162.09 149.28 162.58H149.29ZM147.38 162.36C147.71 162.04 147.87 161.6 147.87 161.04C147.87 160.48 147.71 160.02 147.38 159.7C147.05 159.38 146.56 159.22 145.89 159.22H143.95V162.83H145.89C146.56 162.83 147.05 162.67 147.38 162.35V162.36Z" fill="white"/>
<path d="M160.85 166.36H156.38L155.61 168.54H153.78L157.6 157.85H159.63L163.45 168.54H161.61L160.84 166.36H160.85ZM160.37 164.99L158.62 159.97L156.85 164.99H160.37Z" fill="white"/>
<path d="M176.96 168.54H175.21L169.94 160.57V168.54H168.19V157.85H169.94L175.21 165.81V157.85H176.96V168.54Z" fill="white"/>
<path d="M190.25 157.86L186.72 164.66V168.53H184.97V164.66L181.42 157.86H183.37L185.83 163.07L188.29 157.86H190.26H190.25Z" fill="white"/>
</g>
<defs>
<clipPath id="clip0_972_274">
<rect width="228.56" height="168.64" fill="white"/>
</clipPath>
</defs>
</svg>
